<?xml version="1.0" encoding="UTF-8"?>
<svg id="Illustration" xmlns="http://www.w3.org/2000/svg" viewBox="0 0 2500 2500">
  <defs>
    <style>
      .cls-1 {
        fill: #fff;
      }

      .cls-2 {
        fill: none;
        stroke: #fff;
        stroke-miterlimit: 10;
      }
    </style>
  </defs>
  <g id="Beauty_shop" data-name="Beauty shop">
    <g>
      <g>
        <g>
          <g>
            <path class="cls-2" d="M968.78,1679.44l-329.99-6.38c-18.34-.35-34.31-14.23-39.28-34.13-71.26-285.4-107.65-545.58-79.44-788.82,9.83-84.78,123.74-173.06,199.59-173.06h186.96c88.1,0,187.49,92.8,192.37,191.96,11.91,241.81-27.36,535.59-89.6,776.68-5.24,20.29-21.86,34.12-40.6,33.75Z"/>
            <path class="cls-2" d="M969.49,1681.75c-.25,0-.5,0-.76,0l-329.99-6.38c-19.24-.37-36.29-15.12-41.47-35.87-79.69-319.18-104.95-570.1-79.49-789.65,10.07-86.86,125.94-175.1,201.88-175.1h186.96c43.27,0,90.29,21.67,129,59.45,39.42,38.47,63.35,87.56,65.67,134.7,11.14,226.11-22.38,516.72-89.67,777.37-5.42,21-22.68,35.49-42.12,35.49Zm-249.84-1002.4c-74.22,0-187.46,86.18-197.3,171.02-25.39,218.98-.17,469.38,79.38,788,4.68,18.74,19.93,32.05,37.09,32.38l329.99,6.38c.22,0,.45,0,.67,0,17.34,0,32.77-13.08,37.66-32.03,67.18-260.22,100.65-550.31,89.53-775.99-2.27-45.98-25.7-93.96-64.29-131.63-37.3-36.41-84.32-58.14-125.78-58.14h-186.96Z"/>
          </g>
          <path class="cls-2" d="M1033.78,737.68c-50.53-39.58-63.16-54.74-127.16-60.63h-186.96c-52.21,5.05-75.79,18.53-122.11,54.74,160.69,23.93,246.27,24.51,436.23,5.89Z"/>
          <path class="cls-2" d="M969.49,1681.75c-.25,0-.5,0-.76,0l-329.99-6.38c-19.24-.37-36.29-15.12-41.47-35.87-79.69-319.18-104.95-570.1-79.49-789.65,10.07-86.86,125.94-175.1,201.88-175.1h186.96c43.27,0,90.29,21.67,129,59.45,39.42,38.47,63.35,87.56,65.67,134.7,11.14,226.11-22.38,516.72-89.67,777.37-5.42,21-22.68,35.49-42.12,35.49Zm-249.84-1002.4c-74.22,0-187.46,86.18-197.3,171.02-25.39,218.98-.17,469.38,79.38,788,4.68,18.74,19.93,32.05,37.09,32.38l329.99,6.38c.22,0,.45,0,.67,0,17.34,0,32.77-13.08,37.66-32.03,67.18-260.22,100.65-550.31,89.53-775.99-2.27-45.98-25.7-93.96-64.29-131.63-37.3-36.41-84.32-58.14-125.78-58.14h-186.96Z"/>
          <path class="cls-2" d="M1030.84,811.08c-.9,0-1.76-.53-2.13-1.42-20.96-50.24-54.48-80.91-102.48-93.75-1.23-.33-1.96-1.59-1.63-2.82,.33-1.23,1.6-1.96,2.82-1.63,49.47,13.24,84,44.78,105.54,96.43,.49,1.17-.07,2.52-1.24,3.01-.29,.12-.59,.18-.89,.18Z"/>
          <path class="cls-2" d="M1056.17,940.81c-1.22,0-2.23-.95-2.3-2.18-1.15-21.21-3.2-40.99-6.09-58.8-.2-1.26,.65-2.44,1.91-2.64,1.26-.21,2.44,.65,2.64,1.91,2.91,17.97,4.98,37.92,6.14,59.29,.07,1.27-.9,2.36-2.18,2.43-.04,0-.08,0-.13,0Z"/>
          <path class="cls-2" d="M1044.31,1236.43s-.05,0-.08,0c-1.27-.04-2.27-1.11-2.22-2.38,.83-23.77,2.5-49.33,4.18-73.41,.09-1.27,1.19-2.24,2.46-2.14,1.27,.09,2.23,1.19,2.14,2.46-1.68,24.03-3.35,49.54-4.17,73.25-.04,1.24-1.06,2.22-2.3,2.22Z"/>
        </g>
        <g>
          <g>
            <g>
              <path class="cls-2" d="M867.06,687.65c-47.32,5.75-88.54,6.41-122.9,1.33-11.75-1.74-20.31-10.04-20.31-19.78v-118.59h162.25v118.98c0,9.03-8.09,16.73-19.03,18.06Z"/>
              <path class="cls-2" d="M795.15,694.69c-18.69,0-35.83-1.15-51.33-3.44-12.91-1.91-22.28-11.19-22.28-22.06v-118.59c0-1.27,1.03-2.3,2.3-2.3h162.25c1.27,0,2.3,1.03,2.3,2.3v118.98c0,10.14-9.05,18.89-21.05,20.35-26.07,3.17-50.2,4.76-72.19,4.76Zm-69-141.79v116.28c0,8.57,7.72,15.93,18.35,17.51,33.32,4.93,74.47,4.48,122.29-1.34,9.69-1.18,17-7.96,17-15.78v-116.68h-157.64Zm140.91,134.74h0Z"/>
            </g>
            <g>
              <path class="cls-2" d="M886.09,550.44c0,4.85-36.64,10.7-81.44,10.7s-80.8-5.85-80.8-10.7,36.32-8.78,81.12-8.78,81.12,3.93,81.12,8.78Z"/>
              <path class="cls-2" d="M804.65,563.44c-27.12,0-83.11-3.18-83.11-13.01,0-2.76,2-5.92,25.82-8.5,15.4-1.67,35.86-2.59,57.61-2.59s42.21,.92,57.61,2.59c23.82,2.58,25.82,5.74,25.82,8.5,0,9.83-56.42,13.01-83.75,13.01Zm-77.78-12.96c5.76,3.18,34.76,8.35,77.78,8.35s72.56-5.17,78.41-8.36c-5.88-2.92-34.02-6.52-78.09-6.52s-72.26,3.61-78.1,6.53Zm157.12,.63h0Z"/>
            </g>
            <g>
              <path class="cls-2" d="M860.69,548.54c-41.16,6.68-81,6.54-119.57-.15-1.13-.2-1.95-1.18-1.95-2.33v-21.65h124.48v20.64c0,1.72-1.26,3.21-2.96,3.48Z"/>
              <path class="cls-2" d="M800.58,555.75c-20.26,0-40.25-1.7-59.84-5.09-2.24-.39-3.86-2.32-3.86-4.6v-21.65c0-1.27,1.03-2.3,2.3-2.3h124.48c1.27,0,2.3,1.03,2.3,2.3v20.64c0,2.88-2.06,5.3-4.89,5.76-20.32,3.3-40.53,4.94-60.49,4.94Zm-59.1-29.04v19.35c38.43,6.71,78.4,6.76,118.85,.2,.58-.09,1.02-.61,1.02-1.21v-18.34h-119.87Z"/>
            </g>
            <g>
              <path class="cls-2" d="M863.73,525.05c0,5.29-28.2,9.58-62.6,9.58s-61.96-4.29-61.96-9.58,25.04-6.39,59.43-6.39,65.12,1.1,65.12,6.39Z"/>
              <path class="cls-2" d="M801.13,536.93c-6.58,0-64.26-.33-64.26-11.89,0-5.89,9.24-8.69,61.74-8.69,62.36,0,67.43,3.94,67.43,8.69,0,11.55-58.26,11.89-64.9,11.89Zm-59.47-11.86c3.03,3.07,25.03,7.26,59.47,7.26s56.51-4.1,60-7.17c-2.58-1.72-14.61-4.19-62.53-4.19-34.72,0-53.86,1.38-56.95,4.1Zm119.9,.46h0Z"/>
            </g>
            <g>
              <path class="cls-2" d="M832.29,523.24c-13.54,5.6-46.04,3.88-59.85,0-2.3-.65-3.88-2.74-3.88-5.13v-76.09h66.43v77.22c0,1.76-1.07,3.33-2.7,4Z"/>
              <path class="cls-2" d="M805.46,529.16c-12.71,0-25.89-1.52-33.64-3.7-3.28-.92-5.56-3.94-5.56-7.35v-76.09c0-1.27,1.03-2.3,2.3-2.3h66.43c1.27,0,2.3,1.03,2.3,2.3v77.22c0,2.69-1.62,5.09-4.12,6.13-6.53,2.7-16.95,3.79-27.71,3.79Zm-34.6-84.84v73.79c0,1.35,.91,2.55,2.2,2.91,13.45,3.78,45.61,5.36,58.34,.09,.78-.32,1.28-1.06,1.28-1.87v-74.92h-61.82Z"/>
            </g>
            <g>
              <path class="cls-2" d="M834.67,442.33c0,3-14.66,5.43-32.74,5.43s-32.74-2.43-32.74-5.43,14.66-5.43,32.74-5.43,32.74,2.43,32.74,5.43Z"/>
              <path class="cls-2" d="M801.93,450.06c-10.54,0-35.04-.75-35.04-7.73s24.51-7.73,35.04-7.73,35.04,.75,35.04,7.73-24.51,7.73-35.04,7.73Zm-29.31-7.73c3.54,1.36,13.37,3.12,29.31,3.12s25.78-1.76,29.31-3.12c-3.54-1.36-13.37-3.12-29.31-3.12s-25.78,1.76-29.31,3.12Zm59.98,.74h0Z"/>
            </g>
            <g>
              <ellipse class="cls-2" cx="823.45" cy="460.93" rx="3.87" ry="3.59"/>
              <path class="cls-2" d="M823.45,466.83c-3.41,0-6.18-2.65-6.18-5.9s2.77-5.9,6.18-5.9,6.18,2.65,6.18,5.9-2.77,5.9-6.18,5.9Zm0-7.19c-.85,0-1.57,.59-1.57,1.29s.72,1.29,1.57,1.29,1.57-.58,1.57-1.29-.7-1.29-1.57-1.29Z"/>
            </g>
          </g>
          <g>
            <path class="cls-2" d="M806.18,713.49c-29.95,0-54.89-5.08-76.63-10.9-14.2-3.8-24.12-17.49-24.12-33.29v-233.83c0-17.7,11.65-33.06,27.7-36.53,47.74-10.3,98.14-9.96,149.81,1.01,14.64,3.11,25.27,16.93,25.27,32.87v240.6c0,13.34-8.41,24.99-20.46,28.32-30.93,8.56-57.83,11.76-81.57,11.76Zm-2-317.42c-23.88,0-47.28,2.46-70.08,7.38-13.95,3.01-24.07,16.48-24.07,32.02v233.83c0,13.71,8.51,25.57,20.71,28.84,38.38,10.28,86.9,18.22,155.78-.84,10.06-2.78,17.08-12.6,17.08-23.88v-240.6c0-13.77-9.09-25.7-21.62-28.36-26.33-5.59-52.33-8.39-77.8-8.39Z"/>
            <path class="cls-2" d="M796.98,441.28c-39.62,0-61.11-7.72-78.41-15.73-1.15-.53-1.66-1.9-1.12-3.06,.53-1.15,1.91-1.66,3.06-1.12,27.02,12.51,64.6,24.28,169.24,5.49,1.24-.23,2.45,.61,2.68,1.86,.23,1.25-.61,2.45-1.86,2.68-39.67,7.13-69.88,9.89-93.58,9.89Z"/>
            <g>
              <path class="cls-2" d="M889.96,638.42c-69.41,16.31-120.56,11.21-166.49,.76-6.36-1.45-12.19-4.64-16.44-8.93v43.32c0,13.17,9.57,24.72,22.77,27.9,43.45,10.45,91.87,15.55,157.52-.76,11.04-2.74,19.3-12.4,19.3-23.44v-50.23c-4.25,5.51-9.59,9.71-16.66,11.38Z"/>
              <path class="cls-2" d="M806.09,713.53c-30.03,0-55.03-4.58-76.83-9.82-14.22-3.42-24.54-16.09-24.54-30.14v-43.32c0-.93,.56-1.78,1.43-2.13,.86-.36,1.86-.15,2.51,.51,3.98,4.01,9.42,6.96,15.32,8.3,40.77,9.27,92.31,16.44,165.46-.76,5.94-1.4,10.97-4.84,15.36-10.54,.6-.78,1.64-1.09,2.57-.77,.93,.32,1.56,1.19,1.56,2.18v50.23c0,11.85-8.85,22.64-21.05,25.67-31.01,7.7-57.98,10.58-81.78,10.58Zm-96.76-78.27v38.32c0,11.94,8.83,22.73,21,25.66,38.54,9.27,87.27,16.43,156.43-.76,10.17-2.53,17.55-11.44,17.55-21.2v-44.21c-4.07,3.88-8.64,6.38-13.83,7.6l-.53-2.24,.53,2.24c-74.06,17.41-126.25,10.16-167.53,.76-4.97-1.13-9.66-3.27-13.63-6.17Z"/>
            </g>
            <path class="cls-2" d="M748.07,608.36c-.49,0-.99-.16-1.41-.49-1-.78-1.18-2.23-.4-3.23l47.41-60.88c.78-1,2.23-1.18,3.23-.4,1,.78,1.18,2.23,.4,3.23l-47.41,60.88c-.45,.58-1.13,.89-1.82,.89Z"/>
            <path class="cls-2" d="M847.58,480.58c-.49,0-.99-.16-1.41-.49-1-.78-1.18-2.23-.4-3.23l20.1-25.81c.78-1,2.23-1.18,3.23-.4,1,.78,1.18,2.23,.4,3.23l-20.1,25.81c-.45,.58-1.13,.89-1.82,.89Z"/>
            <path class="cls-2" d="M735.05,489.08c-.5,0-.99-.16-1.41-.49-1-.78-1.18-2.23-.4-3.23l20.1-25.81c.78-1,2.23-1.18,3.23-.4,1,.78,1.18,2.23,.4,3.23l-20.1,25.81c-.45,.58-1.13,.89-1.82,.89Z"/>
            <path class="cls-2" d="M789.46,609.49c-.5,0-.99-.16-1.41-.49-1-.78-1.18-2.23-.4-3.23l30.02-38.54c.78-1,2.23-1.18,3.23-.4,1,.78,1.18,2.23,.4,3.23l-30.02,38.54c-.45,.58-1.13,.89-1.82,.89Z"/>
            <path class="cls-2" d="M839.73,544.94c-.5,0-.99-.16-1.41-.49-1-.78-1.18-2.23-.4-3.23l47.07-60.44c.78-1,2.23-1.18,3.23-.4,1,.78,1.18,2.23,.4,3.23l-47.07,60.44c-.45,.58-1.13,.89-1.82,.89Z"/>
          </g>
        </g>
      </g>
      <g>
        <path class="cls-2" d="M680.77,717.35c-7.44-.82-12.81-7.51-12-14.96,.82-7.44,7.51-12.81,14.96-12,7.44,.82,12.81,7.51,12,14.96-.82,7.44-7.51,12.81-14.96,12Z"/>
        <g>
          <path class="cls-2" d="M561.03,996.49c-5.25-2.38-9.81-6.11-13.26-10.92-5.17-7.22-7.22-16.02-5.76-24.78l32.14-194.02c1.39-8.41,5.73-16.08,12.2-21.62l71.67-61.26c4.45-3.8,10.3-5.43,16.07-4.47,5.77,.96,10.79,4.39,13.77,9.42l48.09,81.09c4.35,7.33,5.97,16,4.58,24.4l-32.14,194.02c-3,18.09-20.15,30.36-38.23,27.37l-100.79-16.7c-2.92-.48-5.72-1.34-8.34-2.53Zm100.44-262.9c-5.61-2.54-9.05-8.62-8-14.97,.61-3.67,2.61-6.89,5.64-9.05,3.03-2.17,6.72-3.02,10.39-2.42,7.58,1.26,12.73,8.44,11.47,16.03-.61,3.67-2.61,6.89-5.64,9.05-3.03,2.17-6.72,3.02-10.39,2.42-1.23-.2-2.39-.56-3.47-1.05Z"/>
          <path class="cls-2" d="M675.61,1018.46c-1.92,0-3.87-.16-5.83-.48l-100.79-16.7c-3.09-.51-6.1-1.42-8.92-2.7-5.63-2.55-10.54-6.59-14.18-11.68-5.53-7.72-7.72-17.13-6.16-26.5l32.14-194.02c1.48-8.94,6.09-17.11,12.98-23l71.67-61.26c4.96-4.24,11.5-6.06,17.94-5,6.44,1.07,12.05,4.9,15.38,10.52l48.09,81.09c4.62,7.8,6.35,17.01,4.87,25.95l-32.14,194.02c-2.88,17.38-17.99,29.74-35.05,29.74Zm-4.77-337.01c-4.13,0-8.14,1.46-11.33,4.19l-71.67,61.26c-6.06,5.18-10.12,12.37-11.43,20.25l-32.14,194.02c-1.35,8.15,.56,16.34,5.37,23.07,3.17,4.43,7.44,7.95,12.34,10.17,2.45,1.11,5.07,1.9,7.77,2.35l100.79,16.7c16.82,2.79,32.79-8.64,35.58-25.47l32.14-194.02c1.3-7.87-.22-15.99-4.29-22.85l-48.09-81.09c-2.63-4.44-7.07-7.48-12.16-8.32-.96-.16-1.91-.24-2.87-.24Zm-3.59,55.69c-.89,0-1.79-.07-2.69-.22-1.4-.23-2.76-.65-4.04-1.23h0c-6.69-3.03-10.52-10.21-9.32-17.45,.71-4.28,3.04-8.03,6.57-10.55,3.53-2.52,7.83-3.52,12.1-2.82,8.83,1.46,14.83,9.84,13.37,18.67-.71,4.28-3.04,8.03-6.57,10.55-2.79,2-6.06,3.04-9.42,3.04Zm-4.83-5.65c.92,.42,1.89,.71,2.9,.88,3.06,.51,6.14-.21,8.67-2.02,2.53-1.81,4.2-4.49,4.7-7.56,1.05-6.33-3.25-12.33-9.58-13.38-3.06-.51-6.14,.21-8.67,2.02-2.53,1.81-4.2,4.49-4.7,7.56-.86,5.19,1.89,10.33,6.68,12.5Z"/>
        </g>
        <path class="cls-2" d="M855.24,731.73c-48.12,0-111.87-9.71-167.99-20.53-1.25-.24-2.07-1.45-1.82-2.7,.24-1.25,1.44-2.07,2.7-1.83,136.14,26.26,219.59,27.35,234.99,3.06,5.4-8.52,2.35-20.76-9.07-36.36-.75-1.03-.53-2.47,.5-3.22,1.03-.75,2.47-.53,3.22,.5,12.65,17.29,15.76,31.27,9.24,41.55-8.99,14.19-36.08,19.53-71.77,19.53Z"/>
        <g>
          <g>
            <path class="cls-2" d="M544.88,973.29c-3.39-1.32-6.57-3.18-9.45-5.57l-80.86-66.99c-14.51-12.02-16.53-33.6-4.51-48.11l128.96-155.66c5.59-6.74,13.41-11.32,22.03-12.88l95.35-17.3c5.91-1.07,11.96,.51,16.59,4.34,4.63,3.83,7.31,9.48,7.35,15.49l.73,96.9c.07,8.76-2.97,17.3-8.56,24.04l-128.96,155.66c-5.82,7.03-14.03,11.37-23.12,12.22-5.37,.5-10.66-.25-15.54-2.14Z"/>
            <path class="cls-2" d="M557.13,977.89c-4.49,0-8.88-.82-13.08-2.45-3.64-1.41-7.04-3.41-10.09-5.94l-80.86-66.99c-15.49-12.83-17.65-35.87-4.82-51.36l128.96-155.66c5.93-7.16,14.24-12.02,23.39-13.68l95.35-17.3c6.58-1.2,13.31,.57,18.47,4.84,5.15,4.27,8.14,10.56,8.19,17.25l.73,96.9c.07,9.3-3.16,18.37-9.1,25.53l-128.95,155.66c-6.22,7.5-14.98,12.14-24.68,13.05-1.18,.11-2.35,.17-3.51,.17Zm142.9-309.14c-1.07,0-2.15,.1-3.23,.29l-95.35,17.3c-8.09,1.47-15.42,5.76-20.67,12.09l-128.96,155.66c-11.21,13.53-9.32,33.66,4.21,44.87l80.86,66.99c2.67,2.21,5.64,3.96,8.82,5.19,4.61,1.79,9.5,2.46,14.49,1.99,8.48-.8,16.13-4.84,21.56-11.4l128.95-155.66c5.24-6.33,8.1-14.34,8.04-22.55l-.73-96.9c-.04-5.33-2.42-10.33-6.52-13.73-3.26-2.7-7.32-4.14-11.48-4.14Z"/>
          </g>
          <path class="cls-2" d="M679.53,719.11c-1.4-.54-2.73-1.31-3.94-2.32-2.95-2.44-4.77-5.88-5.12-9.69-.36-3.81,.79-7.53,3.23-10.48,5.04-6.08,14.09-6.93,20.17-1.89,2.95,2.44,4.77,5.88,5.12,9.69,.36,3.81-.79,7.53-3.23,10.48-4.03,4.87-10.63,6.38-16.23,4.21Z"/>
          <g>
            <circle class="cls-2" cx="601.39" cy="805.81" r="61.86" transform="translate(-393.65 661.26) rotate(-45)"/>
            <path class="cls-2" d="M601.27,869.98c-14.9,0-29.2-5.13-40.82-14.76-27.24-22.57-31.05-63.1-8.48-90.35,22.58-27.24,63.1-31.05,90.35-8.48,27.25,22.57,31.05,63.1,8.48,90.35-10.93,13.2-26.35,21.35-43.42,22.95-2.04,.19-4.08,.29-6.11,.29Zm.17-123.71c-17.14,0-34.15,7.34-45.91,21.54-20.95,25.29-17.42,62.91,7.86,83.86,12.25,10.15,27.74,14.92,43.56,13.43,15.84-1.49,30.15-9.05,40.3-21.3,20.95-25.29,17.42-62.91-7.86-83.86-11.09-9.19-24.56-13.67-37.95-13.67Z"/>
          </g>
          <path class="cls-2" d="M567.52,834.42l6.16-7.44c-5.05-4.58-8.97-10.21-10.52-14.39l9.94-7.21c1.8,4.53,5.05,10,10.14,14.21,4.46,3.7,8.94,4.5,11.54,1.37,2.46-2.98,1.52-6.93-2.66-13.69-6.04-9.76-8.52-18.41-2.22-26,5.71-6.89,15.04-8.27,24.78-2.97l6.16-7.44,7.67,6.36-5.71,6.89c5.05,4.58,7.67,8.6,9.21,11.99l-9.6,6.97c-1.32-2.55-3.43-7.33-9.07-12-5.09-4.22-8.55-3.39-10.37-1.19-2.14,2.58-.76,6.5,3.82,14.52,6.59,11.01,6.78,18.43,.95,25.47-5.77,6.97-15.64,8.83-25.94,2.94l-6.62,7.99-7.67-6.36Z"/>
          <rect class="cls-2" x="484.1" y="869.33" width="114.66" height="17.71" rx="8.01" ry="8.01" transform="translate(684.75 -143.49) rotate(39.64)"/>
        </g>
        <path class="cls-2" d="M660.03,675.68c-.98,0-1.88-.63-2.2-1.61-3.93-12.36-3.44-22.11,1.51-29.81,6.5-10.12,20.49-16.36,42.78-19.08,1.29-.16,2.41,.75,2.57,2.01,.16,1.26-.74,2.41-2.01,2.57-20.55,2.51-33.83,8.22-39.46,17-4.16,6.47-4.48,14.95-.99,25.93,.38,1.21-.29,2.51-1.5,2.89-.23,.07-.47,.11-.7,.11Z"/>
        <path class="cls-2" d="M671.15,699.9c-.81,0-1.59-.43-2.02-1.18-5.51-9.89-9.1-17.72-11.3-24.64-.38-1.21,.29-2.51,1.5-2.89,1.2-.38,2.51,.28,2.89,1.5,2.11,6.63,5.58,14.19,10.94,23.8,.62,1.11,.22,2.51-.89,3.13-.35,.2-.74,.29-1.12,.29Z"/>
        <path class="cls-2" d="M675.56,707.58c-.79,0-1.56-.41-1.99-1.14-1.51-2.58-3-5.16-4.44-7.73-.62-1.11-.22-2.52,.89-3.13,1.1-.62,2.51-.22,3.13,.89,1.42,2.54,2.89,5.09,4.38,7.64,.64,1.1,.28,2.51-.82,3.15-.36,.22-.77,.32-1.16,.32Z"/>
      </g>
    </g>
    <g>
      <g>
        <path class="cls-2" d="M1494.47,1070.41c0,19.34-77.67,35.02-173.48,35.02s-172.64-17.72-172.64-37.07,76.83-32.98,172.64-32.98,173.48,15.68,173.48,35.02Z"/>
        <path class="cls-2" d="M1320.99,1107.74c-96.47,0-174.95-17.66-174.95-39.37,0-24.24,90.69-35.28,174.95-35.28s175.79,13.08,175.79,37.33-90.57,37.33-175.79,37.33Zm0-70.04c-105.21,0-170.34,15.92-170.34,30.67,0,16.41,72.85,34.76,170.34,34.76s171.18-17.24,171.18-32.72-70.3-32.72-171.18-32.72Z"/>
      </g>
      <g>
        <g>
          <path class="cls-2" d="M1301.95,1236.17c-8.39,.82-15.89-3.73-17.28-10.48l-32.15-264.64,44.82-4.37,19.54,265.87c-.06,6.89-6.54,12.8-14.93,13.62Z"/>
          <path class="cls-2" d="M1299.97,1238.57c-8.7,0-16.05-5.07-17.56-12.42l-32.19-264.82c-.07-.62,.1-1.24,.49-1.72,.39-.48,.96-.79,1.58-.85l44.82-4.37c.61-.06,1.23,.13,1.71,.53,.47,.4,.77,.97,.81,1.59l19.54,265.87c-.06,8.31-7.37,15.14-17,16.08-.74,.07-1.48,.11-2.2,.11Zm-44.88-275.46l31.87,262.3c1.11,5.36,7.6,9.16,14.77,8.46,7.16-.7,12.8-5.68,12.85-11.34l-19.36-263.33-40.13,3.91Z"/>
        </g>
        <g>
          <path class="cls-2" d="M1273.32,841.12l-19.53,1.9-3.68,42.71c-1.77,20.5-1.66,41.03,.32,61.39l1.36,14,46.28-4.51-1.36-14c-1.98-20.37-5.84-40.53-11.53-60.3l-11.86-41.19Z"/>
          <path class="cls-2" d="M1251.79,963.43c-.53,0-1.05-.18-1.46-.52-.47-.39-.77-.95-.83-1.56l-1.36-14c-1.99-20.44-2.1-41.23-.33-61.82l3.69-42.71c.09-1.11,.97-1.99,2.07-2.1l19.53-1.9c1.11-.11,2.13,.59,2.44,1.66l11.86,41.19c5.71,19.84,9.62,40.27,11.61,60.72l1.37,14c.06,.61-.13,1.22-.51,1.69-.39,.47-.95,.77-1.56,.83l-46.28,4.51c-.07,0-.15,.01-.22,.01Zm4.13-118.3l-3.52,40.8c-1.75,20.3-1.64,40.82,.32,60.97l1.14,11.71,41.7-4.06-1.14-11.71c-1.97-20.17-5.82-40.32-11.46-59.89l-11.33-39.35-15.72,1.53Z"/>
        </g>
        <g>
          <g>
            <path class="cls-2" d="M1318.74,750.49c16.47,59.51-18.25,114.12-54.15,117.62-35.9,3.5-71.67-36.93-80.44-98.06-6.93-48.36,124.92-54.49,134.59-19.56Z"/>
            <path class="cls-2" d="M1260.12,870.63c-36.74,0-69.89-41.94-78.25-100.25-2.74-19.08,14.75-34.47,46.76-41.17,38.65-8.09,86.34-.97,92.33,20.66,8.86,32.03,3.72,66.33-13.75,91.77-11.52,16.77-26.97,27.25-42.4,28.75-1.57,.15-3.13,.23-4.69,.23Zm.86-140.06c-10.51,0-21.35,1.05-31.41,3.15-29.36,6.14-45.49,19.6-43.14,36,8.36,58.3,41.91,99.62,77.93,96.09,14.07-1.37,28.3-11.13,39.04-26.78,16.71-24.33,21.61-57.2,13.11-87.93-3.77-13.63-28.55-20.53-55.54-20.53Z"/>
          </g>
          <path class="cls-2" d="M1286.71,834.44c-.18,0-.37-.02-.56-.07-1.24-.31-1.99-1.56-1.68-2.79,6.16-24.78,8.38-47.52,6.62-67.59-.11-1.27,.83-2.39,2.09-2.5,1.31-.11,2.39,.83,2.5,2.09,1.81,20.58-.45,43.83-6.73,69.11-.26,1.05-1.2,1.75-2.23,1.75Z"/>
          <path class="cls-2" d="M1258.7,844.75c-.06,0-.11,0-.17,0-1.27-.09-2.22-1.2-2.13-2.47,2.08-28.21,1.32-54.15-2.24-77.11-.2-1.26,.67-2.44,1.92-2.63,1.27-.19,2.43,.67,2.63,1.92,3.62,23.3,4.38,49.6,2.28,78.16-.09,1.21-1.1,2.13-2.3,2.13Z"/>
          <path class="cls-2" d="M1232.15,837.07c-.91,0-1.77-.54-2.13-1.43-9.39-22.87-14.93-44.51-16.49-64.3-.1-1.27,.85-2.38,2.12-2.48,1.26-.1,2.38,.85,2.48,2.12,1.52,19.31,6.96,40.48,16.16,62.91,.48,1.18-.08,2.52-1.26,3.01-.29,.12-.58,.17-.88,.17Z"/>
        </g>
      </g>
      <g>
        <g>
          <path class="cls-2" d="M1361.23,924.18l58.62,3.23-32.35,357.05-13.61,37.23c-1.97,5.39-9.75,4.89-11.14-.72-4.04-16.35-9.27-37.85-9.26-39.58l7.74-357.21Z"/>
          <path class="cls-2" d="M1368.5,1327.77c-.16,0-.32,0-.47-.01-3.69-.2-6.64-2.65-7.52-6.24-9.34-37.81-9.33-39.44-9.32-40.14l7.74-357.24c.01-.62,.28-1.22,.74-1.64,.46-.42,1.08-.65,1.69-.61l58.62,3.23c.63,.03,1.21,.32,1.62,.79,.41,.47,.61,1.09,.55,1.71l-32.35,357.05c-.02,.2-.06,.4-.13,.58l-13.62,37.23c-1.19,3.26-4.12,5.29-7.54,5.29Zm-5.02-401.16l-7.69,354.83c.05,.68,1.06,6.06,9.19,38.97,.47,1.91,2.01,2.67,3.3,2.74,1.23,.07,2.79-.49,3.44-2.26l13.51-36.94,32.11-354.37-53.86-2.96Z"/>
        </g>
        <g>
          <polygon class="cls-2" points="1361.23 924.18 1419.85 927.41 1412.69 1006.48 1359.5 1003.99 1361.23 924.18"/>
          <path class="cls-2" d="M1412.69,1008.78s-.07,0-.11,0l-53.19-2.49c-1.25-.06-2.22-1.1-2.2-2.35l1.73-79.81c.01-.62,.28-1.22,.74-1.64,.46-.42,1.08-.65,1.69-.61l58.62,3.23c.63,.03,1.21,.32,1.62,.79,.41,.47,.61,1.09,.55,1.71l-7.16,79.07c-.11,1.19-1.11,2.1-2.29,2.1Zm-50.84-6.99l48.74,2.28,6.75-74.5-53.86-2.96-1.63,75.18Z"/>
        </g>
        <g>
          <path class="cls-2" d="M1334.07,845.54c-1.32,42.07,9.71,66.88,26.91,79.16,0,0,.02,.01,.02,.01l59.13,2.94s.07-.04,.1-.06c18.22-10.62,31.02-34.47,32.35-76.97,1.98-63.1-54.5-154.25-54.5-154.25,0,0-62.04,86.07-64.01,149.17Z"/>
          <path class="cls-2" d="M1420.1,929.95s-.05,0-.08,0l-59.13-2.94c-.44-.02-.86-.17-1.22-.42-19.77-14.12-29.15-41.4-27.9-81.12,1.98-63.08,61.9-146.91,64.45-150.44,.45-.62,1.17-.98,1.95-.96,.77,.03,1.47,.44,1.88,1.09,2.32,3.75,56.82,92.47,54.85,155.53-1.26,40.13-12.53,66.67-33.49,78.89-.36,.21-.87,.37-1.3,.37Zm-58.3-7.51l57.75,2.87c18.96-11.43,29.55-37.24,30.73-74.77,1.73-55.31-42.73-133.68-52.35-149.94-10.65,15.46-59.83,89.76-61.56,145.01l-2.3-.07,2.3,.07c-1.17,37.19,7.62,63.74,25.43,76.83Z"/>
        </g>
      </g>
      <g>
        <g>
          <path class="cls-2" d="M1286.14,1173.4l-72.35,23.46-9.39-35.7c-.52-1.97-.56-4.04-.14-6.03l.78-3.61c.98-4.54-.55-9.27-3.98-12.31-1.86-1.65-3.2-3.84-3.84-6.28l-69.98-265.34c-.58-2.19-.86-4.44-.85-6.71l.29-69.49,38.07,54.43c2.07,2.96,3.76,6.19,5.01,9.61l94.01,256.85c.8,2.19,1,4.57,.56,6.86l-.11,.58c-.83,4.41,.68,8.95,3.97,11.93l1.66,1.5c1.52,1.37,2.69,3.11,3.41,5.06l12.88,35.19Z"/>
          <path class="cls-2" d="M1213.79,1199.16c-.38,0-.76-.1-1.1-.28-.56-.3-.96-.82-1.12-1.44l-9.39-35.7c-.61-2.31-.66-4.77-.16-7.1l.78-3.6c.81-3.74-.44-7.61-3.26-10.11-2.21-1.96-3.78-4.53-4.54-7.41l-69.97-265.34c-.63-2.38-.94-4.84-.93-7.31l.29-69.49c0-1,.66-1.89,1.62-2.19,.96-.3,2,.06,2.58,.88l38.07,54.43c2.18,3.12,3.96,6.54,5.28,10.14l94.01,256.85c.95,2.58,1.17,5.38,.66,8.08l-.11,.57c-.68,3.61,.56,7.36,3.25,9.79l1.66,1.5c1.8,1.62,3.19,3.69,4.03,5.98l12.88,35.19c.21,.59,.18,1.24-.09,1.8-.27,.56-.77,.99-1.36,1.18l-72.35,23.46c-.23,.08-.47,.11-.71,.11Zm-84.83-400.5l-.26,62.23c-.01,2.06,.25,4.12,.78,6.11l69.97,265.34c.53,2.01,1.62,3.79,3.15,5.14,4.06,3.6,5.86,9.17,4.7,14.52l-.78,3.6c-.35,1.63-.31,3.34,.11,4.96l8.77,33.35,67.76-21.97-12.06-32.94c-.58-1.59-1.55-3.03-2.79-4.14l-1.66-1.5c-3.87-3.5-5.67-8.89-4.69-14.07l.11-.57c.36-1.89,.2-3.84-.46-5.65l-94.01-256.85c-1.18-3.23-2.77-6.28-4.73-9.08l-33.91-48.48Z"/>
        </g>
        <g>
          <path class="cls-2" d="M1128.99,801.75l.62,62.26,32.52-11.61c1.43-.51,1.98-2.25,1.11-3.49l-33.38-47.43c-.27-.38-.87-.19-.87,.28Z"/>
          <path class="cls-2" d="M1129.61,866.31c-.47,0-.93-.14-1.32-.41-.61-.43-.98-1.12-.99-1.87l-.62-62.26h0c-.01-1.23,.77-2.3,1.93-2.68,1.17-.37,2.43,.05,3.13,1.05l33.37,47.43c.84,1.19,1.06,2.66,.62,4.05-.44,1.38-1.47,2.45-2.84,2.94l-32.52,11.61c-.25,.09-.51,.13-.77,.13Zm1.75-58.72l.53,53.15,29.47-10.53-30-42.63Zm-.06-5.87s0,0,0,0h0Z"/>
        </g>
        <path class="cls-2" d="M1127.21,866.68c-.94,0-1.81-.57-2.16-1.5-.44-1.19,.16-2.52,1.36-2.96l28.27-10.51c1.19-.44,2.52,.16,2.96,1.36,.44,1.19-.16,2.52-1.36,2.96l-28.27,10.51c-.27,.1-.54,.15-.8,.15Z"/>
        <g>
          <path class="cls-2" d="M1231.47,1257.15l-18.28-61.47,73.02-22.71,18.28,61.47c3.35,11.26-2.81,23.15-13.75,26.56l-33.39,10.39c-10.94,3.4-22.53-2.97-25.88-14.23Z"/>
          <path class="cls-2" d="M1251.33,1274.61c-3.66,0-7.29-.9-10.62-2.68-5.56-2.96-9.62-7.98-11.45-14.12l-18.28-61.47c-.36-1.21,.32-2.48,1.53-2.86l73.02-22.71c.59-.18,1.23-.12,1.77,.17,.54,.29,.95,.79,1.13,1.38l18.28,61.48c3.7,12.45-3.15,25.64-15.28,29.41l-33.39,10.39c-2.2,.69-4.46,1.02-6.7,1.02Zm-35.28-77.4l17.63,59.29c1.47,4.95,4.74,8.98,9.2,11.36,4.28,2.28,9.17,2.76,13.78,1.32l33.39-10.39c9.73-3.03,15.21-13.66,12.22-23.7l-17.61-59.24-68.62,21.34Z"/>
        </g>
        <path class="cls-2" d="M1217.61,1142.59c-.99,0-1.91-.65-2.21-1.64-.36-1.22,.33-2.5,1.55-2.87l34.69-10.37c1.21-.37,2.5,.33,2.87,1.55,.36,1.22-.33,2.5-1.55,2.87l-34.69,10.37c-.22,.07-.44,.1-.66,.1Z"/>
        <path class="cls-2" d="M1150.86,906.91c-1,0-1.93-.66-2.21-1.68l-8.61-30.43c-.35-1.22,.36-2.5,1.59-2.84,1.21-.35,2.5,.36,2.84,1.59l8.61,30.43c.35,1.22-.36,2.5-1.59,2.84-.21,.06-.42,.09-.63,.09Z"/>
        <path class="cls-2" d="M1286.56,1246.13c-1,0-1.92-.66-2.21-1.66l-13.65-47.14c-.35-1.22,.35-2.5,1.57-2.85,1.23-.36,2.5,.35,2.86,1.57l13.65,47.14c.35,1.22-.35,2.5-1.57,2.85-.21,.06-.43,.09-.64,.09Z"/>
      </g>
      <g>
        <path class="cls-2" d="M1494.68,1633.94c0,19.34-75.35,34.88-171.17,34.88s-175.17-17.39-175.17-36.73,81.88-101.11,177.7-101.11,168.64,83.61,168.64,102.95Z"/>
        <g>
          <path class="cls-2" d="M1495.38,1636.79h-342.35c-2.59,0-4.69-2.1-4.69-4.69v-563.74c27.79,30.18,308.23,41.13,347.04,0v568.42Z"/>
          <path class="cls-2" d="M1495.38,1639.09h-342.35c-3.85,0-6.99-3.14-6.99-6.99v-563.74c0-.95,.58-1.8,1.47-2.15,.88-.35,1.89-.11,2.53,.59,13,14.12,91.78,25.6,179.33,26.14,85.72,.53,148.62-9.5,164.34-26.16,.65-.69,1.65-.91,2.53-.56,.88,.35,1.45,1.2,1.45,2.14v568.42c0,1.27-1.03,2.3-2.3,2.3Zm-344.73-565.9v558.91c0,1.31,1.07,2.38,2.38,2.38h340.05v-561.03c-30.91,23.03-132.23,24.3-163.73,24.1-71.71-.44-155.16-9.07-178.69-24.36Z"/>
        </g>
      </g>
    </g>
    <g>
      <g>
        <path class="cls-2" d="M1506.35,619.3l59.73,1013.79c117.5,33.79,225.7,35.77,327.69-2.99l53.15-924.61-416.17-106.32c-12.85-3.28-25.18,6.89-24.4,20.13Z"/>
        <path class="cls-2" d="M1734.65,1661.1c-53.25,0-109.41-8.6-169.21-25.8-.94-.27-1.61-1.1-1.66-2.08l-59.73-1013.79c-.42-7.05,2.47-13.68,7.92-18.17,5.45-4.5,12.51-6.07,19.35-4.32l416.16,106.32c1.07,.27,1.79,1.26,1.73,2.36l-53.15,924.61c-.05,.91-.63,1.7-1.48,2.02-50.6,19.23-103.65,28.85-159.94,28.85Zm-166.37-29.78c120.78,34.47,226.56,33.54,323.27-2.85l52.95-921.23-414.32-105.85c-5.41-1.38-10.98-.14-15.28,3.41-4.3,3.55-6.58,8.78-6.26,14.35l59.63,1012.16Z"/>
      </g>
      <path class="cls-2" d="M1825.5,1463.39h-.03l-188.23-2.65c-1.22-.02-2.21-.98-2.27-2.19l-26.51-532.9c-.03-.63,.2-1.25,.63-1.7,.43-.46,1.04-.72,1.67-.72h225.35c.62,0,1.21,.25,1.64,.69,.43,.44,.67,1.04,.66,1.66l-10.61,535.55c-.02,1.26-1.05,2.26-2.3,2.26Zm-186.04-7.23l183.78,2.59,10.52-530.91h-220.58l26.29,528.32Z"/>
      <path class="cls-2" d="M1899.73,734.3c-.18,0-.36-.02-.54-.06l-355.26-84.84c-1.24-.3-2-1.54-1.71-2.78,.3-1.24,1.55-2,2.78-1.71l355.26,84.84c1.24,.3,2,1.54,1.71,2.78-.25,1.06-1.2,1.77-2.24,1.77Z"/>
      <g>
        <path class="cls-2" d="M1893.24,1625.46c-87.56,31.81-230.41,29.57-329.49,0v160.99c0,.9,.3,1.8,.3,2.72,0,17.21,74.22,31.16,165.19,31.16s164.95-14.13,164.95-31.34c0-.67,.09,.14-.13-2.16h-.82v-161.36Z"/>
        <path class="cls-2" d="M1729.24,1822.63c-81.2,0-167.49-11.73-167.49-33.46,0-.34-.07-.67-.12-1-.1-.58-.18-1.15-.18-1.72v-160.99c0-.73,.34-1.41,.93-1.85,.59-.43,1.34-.57,2.04-.36,102.71,30.66,243.74,30.68,328.04,.04,.71-.26,1.49-.15,2.11,.28,.61,.43,.98,1.14,.98,1.89v159.6c.45,.38,.75,.92,.81,1.54,.16,1.73,.18,1.9,.14,2.3,0,21.94-86.18,33.73-167.25,33.73Zm-163.18-194.09v157.91c0,.32,.06,.64,.12,.97,.1,.58,.18,1.16,.18,1.75,0,13.65,66.89,28.85,162.88,28.85s162.64-15.3,162.64-29.04c0-.13,0-.22,0-.3-.58-.42-.95-1.1-.95-1.86v-158.1c-84.62,29.54-222.86,29.48-324.88-.19Z"/>
      </g>
    </g>
    <g>
      <ellipse class="cls-1" cx="1392.71" cy="499.31" rx="15.76" ry="16.08"/>
      <g>
        <path class="cls-1" d="M600.38,493.62c-1.27,0-2.3-1.03-2.3-2.3v-17.87c0-1.27,1.03-2.3,2.3-2.3s2.3,1.03,2.3,2.3v17.87c0,1.27-1.03,2.3-2.3,2.3Z"/>
        <path class="cls-1" d="M600.38,535.26c-1.27,0-2.3-1.03-2.3-2.3v-17.87c0-1.27,1.03-2.3,2.3-2.3s2.3,1.03,2.3,2.3v17.87c0,1.27-1.03,2.3-2.3,2.3Z"/>
        <path class="cls-1" d="M588.49,505.5h-17.88c-1.27,0-2.3-1.03-2.3-2.3s1.03-2.3,2.3-2.3h17.88c1.27,0,2.3,1.03,2.3,2.3s-1.03,2.3-2.3,2.3Z"/>
        <path class="cls-1" d="M630.13,505.5h-17.87c-1.27,0-2.3-1.03-2.3-2.3s1.03-2.3,2.3-2.3h17.87c1.27,0,2.3,1.03,2.3,2.3s-1.03,2.3-2.3,2.3Z"/>
      </g>
      <g>
        <path class="cls-1" d="M1196.33,356.9c-.2,0-.39-.02-.59-.08-1.23-.32-1.97-1.58-1.64-2.81l4.55-17.29c.32-1.23,1.6-1.96,2.81-1.64,1.23,.32,1.97,1.58,1.64,2.81l-4.55,17.29c-.27,1.03-1.2,1.72-2.23,1.72Z"/>
        <path class="cls-1" d="M1185.74,397.17c-.19,0-.39-.02-.59-.08-1.23-.32-1.97-1.58-1.64-2.81l4.54-17.29c.32-1.23,1.58-1.97,2.81-1.64,1.23,.32,1.97,1.58,1.64,2.81l-4.54,17.29c-.27,1.03-1.2,1.72-2.23,1.72Z"/>
        <path class="cls-1" d="M1181.82,365.37c-.2,0-.39-.02-.59-.08l-17.29-4.54c-1.23-.32-1.97-1.58-1.64-2.81,.32-1.23,1.6-1.96,2.81-1.64l17.29,4.54c1.23,.32,1.97,1.58,1.64,2.81-.27,1.03-1.2,1.72-2.23,1.72Z"/>
        <path class="cls-1" d="M1222.09,375.95c-.19,0-.39-.02-.59-.08l-17.29-4.54c-1.23-.32-1.97-1.58-1.64-2.81,.32-1.23,1.58-1.97,2.81-1.64l17.29,4.54c1.23,.32,1.97,1.58,1.64,2.81-.27,1.03-1.2,1.72-2.23,1.72Z"/>
      </g>
      <g>
        <path class="cls-1" d="M2037.48,835.77c-1.27,0-2.3-1.03-2.3-2.3v-17.88c0-1.27,1.03-2.3,2.3-2.3s2.3,1.03,2.3,2.3v17.88c0,1.27-1.03,2.3-2.3,2.3Z"/>
        <path class="cls-1" d="M2037.48,877.41c-1.27,0-2.3-1.03-2.3-2.3v-17.87c0-1.27,1.03-2.3,2.3-2.3s2.3,1.03,2.3,2.3v17.87c0,1.27-1.03,2.3-2.3,2.3Z"/>
        <path class="cls-1" d="M2025.6,847.65h-17.88c-1.27,0-2.3-1.03-2.3-2.3s1.03-2.3,2.3-2.3h17.88c1.27,0,2.3,1.03,2.3,2.3s-1.03,2.3-2.3,2.3Z"/>
        <path class="cls-1" d="M2067.24,847.65h-17.88c-1.27,0-2.3-1.03-2.3-2.3s1.03-2.3,2.3-2.3h17.88c1.27,0,2.3,1.03,2.3,2.3s-1.03,2.3-2.3,2.3Z"/>
      </g>
      <path class="cls-1" d="M1320.37,451.1c-2.5,0-5.01-.47-7.41-1.4-5.23-2.03-9.36-6.03-11.61-11.25-4.6-10.66,.17-23.15,10.63-27.85,5.04-2.26,10.65-2.41,15.79-.41,5.23,2.03,9.36,6.03,11.61,11.25,4.6,10.66-.17,23.15-10.63,27.85-2.68,1.2-5.53,1.81-8.38,1.81Zm-6.5-36.3c-8.18,3.67-11.9,13.46-8.29,21.82,1.76,4.08,4.97,7.2,9.05,8.78,3.99,1.55,8.33,1.44,12.23-.32,8.18-3.67,11.9-13.46,8.29-21.82-1.76-4.08-4.97-7.2-9.05-8.78-3.98-1.55-8.33-1.44-12.23,.32Z"/>
      <g>
        <path class="cls-1" d="M1162.59,2123.92c-14.93,0-29.22-.24-42.7-.64-106.9-3.19-187.02-17.03-187.82-17.17-1.25-.22-2.09-1.41-1.87-2.67,.22-1.25,1.39-2.09,2.67-1.87,3.17,.56,320.06,54.58,544.5-29.81,1.18-.44,2.52,.15,2.97,1.35,.45,1.19-.15,2.52-1.35,2.97-101.84,38.3-221.95,47.85-316.4,47.85Z"/>
        <path class="cls-1" d="M1148.39,2165c-52.58,0-87.73-2.59-88.72-2.67-1.27-.1-2.22-1.21-2.12-2.48,.1-1.27,1.18-2.21,2.48-2.12,2.85,.22,286.53,21.13,455.13-57.81,1.15-.54,2.52-.04,3.06,1.11,.54,1.15,.04,2.52-1.11,3.06-110.63,51.8-270.23,60.9-368.71,60.9Z"/>
        <path class="cls-1" d="M1519.4,2082.26c-1.93,0-3.9-.3-5.83-.92-9.98-3.22-15.48-13.97-12.26-23.95,3.22-9.98,13.96-15.48,23.95-12.26,4.84,1.56,8.78,4.91,11.09,9.44,2.32,4.52,2.73,9.68,1.17,14.52-2.6,8.05-10.09,13.18-18.12,13.18Zm0-33.46c-2.25,0-4.49,.53-6.55,1.59-3.43,1.76-5.97,4.74-7.15,8.4-2.44,7.57,1.73,15.71,9.29,18.15,7.57,2.44,15.71-1.73,18.15-9.29,1.18-3.67,.87-7.57-.89-11-1.76-3.43-4.74-5.97-8.41-7.15-1.46-.47-2.95-.7-4.44-.7Z"/>
        <path class="cls-1" d="M856.08,2093.5c-.39,0-.77-.1-1.13-.29l-55.46-31.02c-.77-.43-1.23-1.26-1.17-2.14,.05-.88,.6-1.65,1.41-1.99l54.07-22.53c.71-.29,1.51-.22,2.14,.19,.64,.41,1.03,1.11,1.05,1.87l1.4,53.55c.02,.83-.4,1.6-1.11,2.03-.36,.22-.78,.33-1.19,.33Zm-50.2-33.02l47.79,26.73-1.2-46.14-46.59,19.41Z"/>
      </g>
    </g>
    <g>
      <g>
        <g>
          <ellipse class="cls-2" cx="465.11" cy="1232.71" rx="76.33" ry="12.16"/>
          <path class="cls-2" d="M465.11,1247.18c-3.21,0-78.64-.16-78.64-14.46s75.43-14.46,78.64-14.46,78.64,.16,78.64,14.46-75.42,14.46-78.64,14.46Zm0-24.32c-47.03,0-72.81,6.36-74.04,9.93,1.22,3.42,27.01,9.78,74.04,9.78s72.46-6.28,74.01-9.86c-1.55-3.58-27.3-9.86-74.01-9.86Zm74.04,9.93h0Z"/>
        </g>
        <g>
          <path class="cls-2" d="M530.18,1289.63h-130.85v-160.87c0-13.56,8.04-25.82,20.48-31.23l77.03-33.49c17.02-7.4,36,5.21,35.78,23.77l-2.43,201.82Z"/>
          <path class="cls-2" d="M436.46,1135.14c-8.13,0-15.75-1.26-22.4-4.05-1.17-.49-1.73-1.84-1.23-3.02,.49-1.17,1.84-1.73,3.02-1.23,28.35,11.89,75.85-6.06,100.75-29.6,.92-.87,2.38-.83,3.26,.09,.88,.92,.83,2.38-.09,3.26-20.18,19.08-54.8,34.54-83.29,34.54Z"/>
          <path class="cls-2" d="M530.18,1291.93h-130.85c-1.27,0-2.3-1.03-2.3-2.3v-160.87c0-14.48,8.58-27.57,21.86-33.34l77.03-33.49c8.71-3.79,18.64-2.91,26.55,2.35,7.91,5.26,12.57,14.06,12.45,23.56l-2.43,201.82c-.02,1.26-1.04,2.28-2.3,2.28Zm-128.55-4.61h126.27l2.41-199.54c.09-7.93-3.79-15.28-10.4-19.67-6.6-4.39-14.89-5.12-22.16-1.96l-77.03,33.49c-11.6,5.04-19.09,16.47-19.09,29.12v158.56Z"/>
        </g>
        <g>
          <path class="cls-2" d="M565.44,1321.6c0,10.84-45.97,32.71-101.78,32.71s-100.32-21.87-100.32-32.71,45.24-19.63,101.05-19.63,101.05,8.79,101.05,19.63Z"/>
          <path class="cls-2" d="M463.66,1356.62c-55.66,0-102.62-21.51-102.62-35.02,0-14.4,51.99-21.93,103.35-21.93s103.35,7.53,103.35,21.93c0,13.19-48.65,35.02-104.08,35.02Zm.73-52.34c-61.18,0-98.74,10.09-98.74,17.32,0,8.82,42.42,30.41,98.01,30.41s99.47-21.84,99.47-30.41c0-7.23-37.57-17.32-98.74-17.32Z"/>
        </g>
        <g>
          <path class="cls-2" d="M526.16,1556.48c-41.5,9.82-82.91,13.42-124.06,.59-7.55-2.36-12.59-8.26-12.59-14.87v-304.77c49.13,17.3,99.84,16.32,151.9,0v302.29c0,7.73-6.17,14.62-15.25,16.77Z"/>
          <path class="cls-2" d="M458.18,1567.6c-20.26,0-38.95-2.78-56.77-8.34-8.5-2.65-14.2-9.51-14.2-17.07v-304.77c0-.75,.36-1.45,.97-1.88,.61-.43,1.39-.54,2.1-.29,47,16.55,97.61,16.54,150.45-.02,.7-.22,1.46-.09,2.05,.34,.59,.43,.94,1.12,.94,1.86v302.29c0,8.82-7,16.64-17.02,19.01l-.53-2.24,.53,2.24c-25.02,5.92-47.61,8.88-68.51,8.88Zm-66.37-326.95v301.54c0,5.53,4.41,10.62,10.97,12.67,35.37,11.03,74.4,10.83,122.84-.63,7.94-1.88,13.48-7.85,13.48-14.53v-299.17c-51.58,15.6-101.1,15.63-147.29,.11Z"/>
        </g>
        <g>
          <path class="cls-2" d="M543.84,1843.26c-54.82,15.86-109.51,21.67-163.87,.94-9.98-3.8-16.63-13.33-16.63-24.01v-492.05c64.89,27.93,131.88,26.35,200.64,0v488.04c0,12.48-8.15,23.61-20.14,27.07Z"/>
          <path class="cls-2" d="M454.04,1859.8c-26.74,0-51.4-4.48-74.9-13.44-10.83-4.13-18.11-14.64-18.11-26.16v-492.05c0-.78,.39-1.5,1.04-1.92,.65-.43,1.46-.5,2.18-.19,62.14,26.74,129.06,26.73,198.91-.04,.7-.27,1.5-.18,2.13,.25,.63,.43,1,1.14,1,1.9v488.04c0,13.53-8.97,25.57-21.81,29.29l-.64-2.21,.64,2.21c-33.03,9.55-62.84,14.33-90.43,14.33Zm-88.4-528.18v488.58c0,9.62,6.09,18.4,15.14,21.86,46.77,17.83,98.38,17.51,162.41-1.01,10.88-3.15,18.48-13.37,18.48-24.86v-484.71c-68.67,25.58-134.6,25.62-196.03,.14Z"/>
        </g>
        <path class="cls-2" d="M512.69,1679.68c-1.27,0-2.3-1.03-2.3-2.3v-155.53c0-1.27,1.03-2.3,2.3-2.3s2.3,1.03,2.3,2.3v155.53c0,1.27-1.03,2.3-2.3,2.3Z"/>
        <path class="cls-2" d="M512.69,1787.21h-96.77c-1.27,0-2.3-1.03-2.3-2.3v-376.34c0-1.27,1.03-2.3,2.3-2.3h96.77c1.27,0,2.3,1.03,2.3,2.3v61.45c0,1.27-1.03,2.3-2.3,2.3s-2.3-1.03-2.3-2.3v-59.14h-92.17v371.73h92.17v-51.07c0-1.27,1.03-2.3,2.3-2.3s2.3,1.03,2.3,2.3v53.38c0,1.27-1.03,2.3-2.3,2.3Z"/>
      </g>
      <g>
        <g>
          <ellipse class="cls-2" cx="654.6" cy="1242.82" rx="76.33" ry="12.16"/>
          <path class="cls-2" d="M654.6,1257.28c-3.21,0-78.64-.16-78.64-14.46s75.43-14.46,78.64-14.46,78.64,.16,78.64,14.46-75.42,14.46-78.64,14.46Zm0-24.32c-47.03,0-72.81,6.36-74.04,9.93,1.22,3.42,27.01,9.78,74.04,9.78s72.46-6.28,74.01-9.85c-1.55-3.58-27.3-9.85-74.01-9.85Zm74.04,9.93h0Z"/>
        </g>
        <g>
          <path class="cls-2" d="M719.66,1308.95h-130.85v-160.87c0-13.56,8.04-25.82,20.48-31.23l77.03-33.49c17.02-7.4,36,5.21,35.78,23.77l-2.43,201.82Z"/>
          <path class="cls-2" d="M719.66,1311.26h-130.85c-1.27,0-2.3-1.03-2.3-2.3v-160.87c0-14.48,8.58-27.57,21.86-33.34l77.03-33.49c8.71-3.79,18.64-2.91,26.55,2.35,7.91,5.26,12.57,14.07,12.45,23.56l-2.43,201.82c-.02,1.26-1.04,2.28-2.3,2.28Zm-128.55-4.61h126.27l2.4-199.54c.1-7.93-3.79-15.28-10.39-19.67-6.61-4.39-14.89-5.12-22.16-1.96l-77.03,33.49c-11.6,5.04-19.09,16.47-19.09,29.12v158.56Z"/>
        </g>
        <g>
          <path class="cls-2" d="M754.92,1331.71c0,10.84-45.97,32.71-101.78,32.71s-100.32-21.87-100.32-32.71,45.24-19.63,101.05-19.63,101.05,8.79,101.05,19.63Z"/>
          <path class="cls-2" d="M653.14,1366.73c-55.66,0-102.62-21.51-102.62-35.02,0-14.4,51.99-21.93,103.35-21.93s103.35,7.53,103.35,21.93c0,13.19-48.65,35.02-104.08,35.02Zm.73-52.34c-61.18,0-98.74,10.09-98.74,17.32,0,8.82,42.42,30.41,98.01,30.41s99.47-21.84,99.47-30.41c0-7.23-37.57-17.32-98.74-17.32Z"/>
        </g>
        <g>
          <path class="cls-2" d="M715.64,1566.59c-41.5,9.82-82.91,13.42-124.06,.58-7.55-2.36-12.59-8.26-12.59-14.87v-304.77c49.13,17.3,99.84,16.32,151.9,0v302.29c0,7.73-6.17,14.62-15.25,16.77Z"/>
          <path class="cls-2" d="M647.67,1577.71c-20.26,0-38.95-2.78-56.77-8.34-8.5-2.65-14.21-9.51-14.21-17.07v-304.77c0-.75,.36-1.45,.97-1.88,.61-.43,1.39-.54,2.1-.29,47,16.55,97.61,16.54,150.44-.02,.7-.22,1.46-.09,2.05,.34,.59,.43,.94,1.12,.94,1.86v302.29c0,8.82-7,16.64-17.02,19.01-25.02,5.92-47.6,8.88-68.51,8.88Zm-66.37-326.95v301.54c0,5.53,4.41,10.62,10.97,12.67,35.37,11.03,74.4,10.84,122.84-.63,7.93-1.88,13.48-7.85,13.48-14.53v-299.17c-51.58,15.6-101.1,15.63-147.29,.11Zm134.34,315.83h0Z"/>
        </g>
        <g>
          <path class="cls-2" d="M733.32,1853.37c-54.82,15.86-109.51,21.67-163.87,.94-9.98-3.8-16.63-13.33-16.63-24.01v-492.05c64.89,27.93,131.88,26.35,200.64,0v488.04c0,12.48-8.15,23.61-20.14,27.07Z"/>
          <path class="cls-2" d="M643.53,1869.91c-26.74,0-51.39-4.48-74.9-13.44-10.83-4.13-18.11-14.64-18.11-26.16v-492.05c0-.78,.39-1.5,1.04-1.92,.65-.43,1.46-.5,2.18-.19,62.14,26.74,129.06,26.73,198.9-.04,.7-.27,1.5-.18,2.13,.25,.63,.43,1,1.14,1,1.9v488.04c0,13.53-8.97,25.57-21.81,29.29l-.64-2.21,.64,2.21c-33.03,9.55-62.84,14.33-90.43,14.33Zm-88.4-528.18v488.58c0,9.62,6.09,18.4,15.14,21.86,46.77,17.83,98.38,17.51,162.41-1.01,10.88-3.15,18.48-13.37,18.48-24.86v-484.71c-68.68,25.58-134.59,25.62-196.03,.14Z"/>
        </g>
        <path class="cls-2" d="M625.95,1154.47c-8.13,0-15.75-1.26-22.4-4.05-1.17-.49-1.73-1.84-1.23-3.02,.49-1.17,1.84-1.73,3.02-1.23,28.35,11.89,75.85-6.06,100.75-29.6,.92-.87,2.38-.83,3.26,.09,.88,.92,.83,2.38-.09,3.26-20.18,19.08-54.8,34.54-83.29,34.54Z"/>
        <path class="cls-2" d="M584.5,1605.95c-1.27,0-2.3-1.03-2.3-2.3v-211.98c0-1.27,1.03-2.3,2.3-2.3s2.3,1.03,2.3,2.3v211.98c0,1.27-1.03,2.3-2.3,2.3Z"/>
        <path class="cls-2" d="M584.5,1813.32c-1.27,0-2.3-1.03-2.3-2.3v-172.81c0-1.27,1.03-2.3,2.3-2.3s2.3,1.03,2.3,2.3v172.81c0,1.27-1.03,2.3-2.3,2.3Z"/>
      </g>
    </g>
    <g>
      <g>
        <rect class="cls-2" x="769.36" y="1300.67" width="841.57" height="407.31"/>
        <path class="cls-2" d="M1610.93,1710.29H769.36c-1.27,0-2.3-1.03-2.3-2.3v-407.31c0-1.27,1.03-2.3,2.3-2.3h841.57c1.27,0,2.3,1.03,2.3,2.3v407.31c0,1.27-1.03,2.3-2.3,2.3Zm-839.26-4.61h836.96v-402.7H771.66v402.7Z"/>
      </g>
      <g>
        <path class="cls-2" d="M769.36,1706.83l-95.44,186.28,1021.74,4.16c5.05,.02,8.34-5.29,6.07-9.8l-90.81-180.64H769.36Z"/>
        <path class="cls-2" d="M1695.69,1899.58h-.04l-1021.74-4.16c-.8,0-1.54-.42-1.96-1.11-.42-.68-.45-1.54-.08-2.25l95.44-186.28c.39-.77,1.19-1.25,2.05-1.25h841.57c.87,0,1.67,.49,2.06,1.27l90.8,180.64c1.43,2.84,1.28,6.14-.39,8.84-1.67,2.69-4.55,4.29-7.71,4.29Zm-1018.01-8.75l1017.99,4.14h.02c1.55,0,2.97-.79,3.79-2.11,.82-1.33,.89-2.95,.19-4.35l-90.16-179.37H770.77l-93.08,181.69Z"/>
      </g>
      <g>
        <rect class="cls-2" x="673.92" y="1893.69" width="1030.39" height="59.15"/>
        <path class="cls-2" d="M1704.31,1955.14H673.92c-1.27,0-2.3-1.03-2.3-2.3v-59.15c0-1.27,1.03-2.3,2.3-2.3H1704.31c1.27,0,2.3,1.03,2.3,2.3v59.15c0,1.27-1.03,2.3-2.3,2.3Zm-1028.09-4.61H1702.01v-54.54H676.23v54.54Z"/>
      </g>
      <g>
        <path class="cls-2" d="M870.02,1793.26c-46.68,0-83.24-14.23-83.24-32.4s36.56-32.4,83.24-32.4,83.24,14.23,83.24,32.4-36.56,32.4-83.24,32.4Zm0-60.18c-47.04,0-78.63,14.37-78.63,27.79s31.6,27.79,78.63,27.79,78.63-14.37,78.63-27.79-31.6-27.79-78.63-27.79Z"/>
        <path class="cls-2" d="M1077.55,1793.26c-46.68,0-83.24-14.23-83.24-32.4s36.56-32.4,83.24-32.4,83.24,14.23,83.24,32.4-36.56,32.4-83.24,32.4Zm0-60.18c-47.04,0-78.64,14.37-78.64,27.79s31.6,27.79,78.64,27.79,78.63-14.37,78.63-27.79-31.6-27.79-78.63-27.79Z"/>
        <path class="cls-2" d="M1290.9,1791.18c-46.68,0-83.24-14.23-83.24-32.4s36.56-32.4,83.24-32.4,83.24,14.23,83.24,32.4-36.56,32.4-83.24,32.4Zm0-60.18c-47.04,0-78.63,14.37-78.63,27.79s31.6,27.79,78.63,27.79,78.63-14.37,78.63-27.79-31.6-27.79-78.63-27.79Z"/>
        <path class="cls-2" d="M1494.7,1791.18c-46.68,0-83.24-14.23-83.24-32.4s36.56-32.4,83.24-32.4,83.24,14.23,83.24,32.4-36.56,32.4-83.24,32.4Zm0-60.18c-47.04,0-78.63,14.37-78.63,27.79s31.6,27.79,78.63,27.79,78.63-14.37,78.63-27.79-31.6-27.79-78.63-27.79Z"/>
        <ellipse class="cls-2" cx="849.27" cy="1841.81" rx="80.94" ry="30.09"/>
        <path class="cls-2" d="M1075.49,1874.2c-46.68,0-83.24-14.23-83.24-32.4s36.56-32.4,83.24-32.4,83.24,14.23,83.24,32.4-36.56,32.4-83.24,32.4Zm0-60.18c-47.04,0-78.63,14.37-78.63,27.79s31.6,27.79,78.63,27.79,78.63-14.37,78.63-27.79-31.6-27.79-78.63-27.79Z"/>
        <ellipse class="cls-2" cx="1285.74" cy="1839.73" rx="80.94" ry="30.09"/>
        <path class="cls-2" d="M1523.79,1872.13c-46.68,0-83.24-14.23-83.24-32.4s36.56-32.4,83.24-32.4,83.24,14.23,83.24,32.4-36.56,32.4-83.24,32.4Zm0-60.18c-47.04,0-78.63,14.37-78.63,27.79s31.6,27.79,78.63,27.79,78.63-14.37,78.63-27.79-31.6-27.79-78.63-27.79Z"/>
      </g>
      <path class="cls-2" d="M1574.12,1686.6H802.24c-1.27,0-2.3-1.03-2.3-2.3v-354.84c0-1.27,1.03-2.3,2.3-2.3h771.88c1.27,0,2.3,1.03,2.3,2.3v354.84c0,1.27-1.03,2.3-2.3,2.3Zm-769.58-4.61h767.27v-350.23H804.54v350.23Z"/>
      <path class="cls-2" d="M1135.61,1594.77c-.63,0-1.26-.26-1.72-.77-.85-.95-.77-2.41,.18-3.25l107.63-96.22c.95-.85,2.4-.77,3.25,.18,.85,.95,.77,2.41-.18,3.25l-107.63,96.22c-.44,.39-.99,.59-1.53,.59Z"/>
      <path class="cls-2" d="M1259.65,1483.88c-.63,0-1.26-.26-1.72-.77-.85-.95-.77-2.41,.18-3.25l28.67-25.63c.95-.85,2.4-.77,3.25,.18,.85,.95,.77,2.41-.18,3.25l-28.67,25.63c-.44,.39-.99,.59-1.53,.59Z"/>
      <path class="cls-2" d="M1205.46,1576c-.63,0-1.26-.26-1.72-.77-.85-.95-.77-2.41,.18-3.25l86.38-77.22c.95-.85,2.4-.77,3.25,.18,.85,.95,.77,2.41-.18,3.25l-86.38,77.22c-.44,.39-.99,.59-1.53,.59Z"/>
      <path class="cls-2" d="M857.54,1451.57c-.63,0-1.26-.26-1.72-.77-.85-.95-.77-2.41,.18-3.25l86.38-77.22c.95-.85,2.4-.77,3.25,.18,.85,.95,.77,2.41-.18,3.25l-86.38,77.22c-.44,.39-.99,.59-1.53,.59Z"/>
      <path class="cls-2" d="M905.92,1440.05c-.63,0-1.26-.26-1.72-.77-.85-.95-.77-2.41,.18-3.25l86.38-77.22c.95-.85,2.41-.77,3.25,.18,.85,.95,.77,2.41-.18,3.25l-86.38,77.22c-.44,.39-.99,.59-1.53,.59Z"/>
      <path class="cls-2" d="M1392.8,1435.96c-.63,0-1.26-.26-1.72-.77-.85-.95-.77-2.41,.18-3.25l75.33-67.34c.95-.85,2.4-.77,3.25,.18,.85,.95,.77,2.41-.18,3.25l-75.33,67.34c-.44,.39-.99,.59-1.53,.59Z"/>
      <path class="cls-2" d="M1339.93,1646.05c-.63,0-1.26-.26-1.72-.77-.85-.95-.77-2.41,.18-3.25l73.04-65.29c.95-.85,2.4-.77,3.25,.18,.85,.95,.77,2.41-.18,3.25l-73.04,65.29c-.44,.39-.99,.59-1.53,.59Z"/>
      <path class="cls-2" d="M1453.84,1544.23c-.63,0-1.26-.26-1.72-.77-.85-.95-.77-2.41,.18-3.25l64.99-58.09c.95-.85,2.4-.77,3.25,.18,.85,.95,.77,2.41-.18,3.25l-64.99,58.09c-.44,.39-.99,.59-1.53,.59Z"/>
      <path class="cls-2" d="M858.37,1616.1c-.63,0-1.26-.26-1.72-.77-.85-.95-.77-2.41,.18-3.25l25.58-22.87c.94-.85,2.41-.77,3.25,.18,.85,.95,.77,2.41-.18,3.25l-25.58,22.87c-.44,.39-.99,.59-1.53,.59Z"/>
      <path class="cls-2" d="M903.45,1575.8c-.63,0-1.26-.26-1.72-.77-.85-.95-.77-2.41,.18-3.25l27.96-25c.95-.85,2.4-.77,3.25,.18,.85,.95,.77,2.41-.18,3.25l-27.96,25c-.44,.39-.99,.59-1.53,.59Z"/>
      <path class="cls-2" d="M972.27,1514.28c-.62,0-1.24-.25-1.7-.75-.86-.94-.8-2.4,.14-3.26l100.32-91.89c.94-.86,2.4-.8,3.26,.14,.86,.94,.8,2.4-.14,3.26l-100.32,91.89c-.44,.4-1,.61-1.56,.61Z"/>
    </g>
    <g>
      <path class="cls-2" d="M1995.06,920.08c-2.72-3.89-5.9-7.42-9.64-10.41-17.19-13.8-42.23-13.17-63.01-5.83-15.42,5.44-30.86,15.69-35,31.5-3.57,13.65,4.85,18.14,13.02,26.26,10.25,10.17,19.22,22.09,28.71,32.98,8.12,9.33,17.9,18.5,24.37,29.06,8.77,14.32,9.21,29.33,12.39,45.29,2.17,10.92,6.88,21.21,12.69,30.71,4.15,6.78,8.94,13.26,14.98,18.42,8.94,7.64,20.12,12.01,30.56,17.4,22.22,11.47,50.32,30.62,57.97,55.09,4.27,13.68,13.91,24.93,18.43,38.8,4.7,14.4,6.29,29.83,4.45,44.88,5.46-3.91,7.93-10.67,10.11-17.01,10.74-31.27,21.57-63.01,23.6-96.01,1.81-29.37-5.45-57.61-28.11-77.64-17.88-15.81-42.2-22.08-59.84-37.2-16.16-13.84-28.25-32.61-34.32-52.98-4.34-14.56-5.69-29.83-9.28-44.6-2.46-10.11-6.18-20.26-12.09-28.7Z"/>
      <g>
        <g>
          <path class="cls-2" d="M2022.67,1817.28s-300.75,43.32-326.94-16.77c0,0,10.89-45.02,78.34-50.57,67.45-5.55,248.6,67.34,248.6,67.34Z"/>
          <path class="cls-2" d="M1827.61,1834.74c-64.51,0-122.77-7.55-133.99-33.31-.2-.46-.25-.97-.13-1.46,.11-.47,12.07-46.7,80.39-52.33,67.19-5.53,242.24,64.52,249.65,67.5,.97,.39,1.55,1.38,1.43,2.41-.13,1.03-.93,1.86-1.96,2.01-7.14,1.03-107.12,15.18-195.39,15.18Zm-129.43-34.42c24.7,51.15,266.09,22.33,315.41,15.86-36.13-14.04-181.31-68.72-239.33-63.95-60.36,4.97-74.3,42.38-76.08,48.09Z"/>
        </g>
        <g>
          <path class="cls-2" d="M1781.26,1651.1s25.72,157.88,163,320.93c12.95,15.38,23.38,32.71,31.21,51.23l4.72,11.15s32.26-5.57,37.41-21.45c5.16-15.88-125.04-256.13-125.04-256.13l-111.31-105.72Z"/>
          <path class="cls-2" d="M1980.19,2036.71c-.91,0-1.76-.54-2.12-1.41l-4.71-11.15c-7.9-18.67-18.28-35.71-30.86-50.64-136.12-161.67-163.25-320.46-163.51-322.05-.16-.98,.32-1.95,1.2-2.41,.87-.46,1.94-.32,2.66,.37l111.31,105.72c.18,.17,.32,.36,.44,.57,.33,.6,32.93,60.79,64.48,122.16,64.25,124.95,61.69,132.82,60.73,135.79-5.52,17.01-37.84,22.77-39.22,23.01-.13,.02-.26,.03-.39,.03Zm-195.27-378.96c6.89,32.36,42.06,171.4,161.1,312.8,12.87,15.29,23.5,32.72,31.58,51.81l3.98,9.42c6.65-1.42,29.83-7.19,33.83-19.54,3.29-11.32-74.67-161.66-124.7-254l-105.8-100.49Z"/>
        </g>
        <g>
          <g>
            <path class="cls-2" d="M2005.48,2020.19l-7.27-21.19c-32.49-11.32-27.82,13.17-27.26,25.93,.56,12.77-20.3,62.87-31.85,72.7-11.55,9.82-5.16,25.28-5.16,25.28,0,0,39.21,14.41,68.37-6.32,29.17-20.72,50.71-107.47,50.71-107.47-16.04-27.64-49.07-34.77-49.07-34.77,0,0,15.99,20.65,1.52,45.83Z"/>
            <path class="cls-2" d="M1964.03,2130.15c-16.72,0-29.94-4.73-30.88-5.08-.61-.22-1.09-.69-1.33-1.28-.07-.17-6.89-17.13,5.8-27.92,10.97-9.34,31.57-58.74,31.04-70.84-.05-1.1-.13-2.29-.21-3.54-.54-8.2-1.29-19.44,5.74-24.8,5.16-3.93,13.26-3.89,24.79,.13,.67,.23,1.19,.76,1.42,1.43l5.49,16.01c9.19-21.37-3.6-38.31-3.74-38.49-.59-.77-.64-1.82-.13-2.64,.52-.82,1.5-1.22,2.43-1.02,1.39,.3,34.21,7.66,50.57,35.86,.3,.52,.39,1.13,.24,1.71-.89,3.58-22.08,87.81-51.61,108.79-12.73,9.05-27.15,11.68-39.62,11.68Zm-28.3-9.07c6.19,1.99,39.96,11.61,65.25-6.36,26.57-18.88,47.18-95.96,49.57-105.24-11.6-19.27-31.97-28.06-41.66-31.29,4.01,8.06,9.28,24.53-1.42,43.15-.45,.78-1.29,1.24-2.22,1.15-.9-.09-1.67-.69-1.96-1.55l-6.9-20.12c-9.25-3.07-15.78-3.23-19.42-.45-5.07,3.86-4.44,13.27-3.94,20.83,.09,1.28,.17,2.51,.22,3.64,.59,13.47-20.39,64.12-32.66,74.55-8.69,7.39-5.95,18.39-4.86,21.7Z"/>
          </g>
          <path class="cls-2" d="M2019.7,2072.34c14.79-27.05,19.7-59.01,21.32-78.13,4.44,4.14,8.61,9.06,12,14.92,0,0-21.54,86.74-50.71,107.47-29.17,20.72-68.37,6.32-68.37,6.32,0,0-2.38-5.8-1.59-12.54,54.93,11.86,65.51,1.92,87.35-38.02Z"/>
          <g>
            <path class="cls-2" d="M1932.36,2110.36c.5-4.27,2.27-8.93,6.75-12.74,11.55-9.82,32.41-59.93,31.85-72.7-.56-12.77-5.23-37.25,27.26-25.93l7.27,21.19c14.47-25.18-1.52-45.83-1.52-45.83,0,0,20.52,4.44,37.06,19.85-1.63,19.12-6.54,51.08-21.32,78.13-21.83,39.94-32.41,49.89-87.35,38.02Z"/>
            <path class="cls-2" d="M1967.36,2117.41c-9.5,0-20.99-1.67-35.49-4.8-1.16-.25-1.94-1.34-1.8-2.52,.67-5.76,3.21-10.54,7.54-14.23,10.97-9.34,31.57-58.74,31.04-70.84-.05-1.1-.13-2.29-.21-3.54-.54-8.2-1.29-19.44,5.74-24.8,5.16-3.93,13.26-3.89,24.79,.13,.67,.23,1.19,.76,1.42,1.43l5.49,16.01c9.19-21.37-3.6-38.31-3.74-38.49-.59-.77-.64-1.82-.13-2.64,.52-.82,1.5-1.22,2.43-1.02,.86,.19,21.33,4.75,38.15,20.42,.52,.48,.79,1.18,.72,1.88-1.82,21.36-7.04,52.41-21.6,79.04-16.84,30.81-27.69,43.97-54.37,43.97Zm-32.36-8.84c50.65,10.64,61.11,2.12,82.68-37.34,14.6-26.71,19.39-58.69,20.95-76.1-10.62-9.58-22.86-14.66-29.74-16.95,4.01,8.06,9.28,24.53-1.42,43.15-.45,.78-1.29,1.24-2.22,1.15-.9-.09-1.67-.69-1.96-1.55l-6.9-20.12c-9.25-3.07-15.78-3.23-19.42-.45-5.07,3.86-4.44,13.27-3.94,20.83,.09,1.28,.17,2.51,.22,3.64,.59,13.47-20.39,64.12-32.66,74.55-2.89,2.46-4.76,5.54-5.6,9.19Z"/>
          </g>
          <path class="cls-2" d="M1991.26,2080.97c-.23,0-.46-.03-.69-.11-1.22-.38-1.89-1.67-1.51-2.89,.08-.27,8.35-26.94,12.58-53.53,.2-1.26,1.37-2.12,2.64-1.91,1.26,.2,2.11,1.38,1.91,2.64-4.28,26.92-12.64,53.91-12.73,54.17-.31,.99-1.22,1.62-2.2,1.62Z"/>
        </g>
        <g>
          <path class="cls-2" d="M1924.85,2081.16c2.29-1.01-2.66-29.81,1.61-42.01s53.62-122.9,56.89-238.48c3.28-115.58-96.99-93.99-96.99-93.99,0,0,28.45,269.37-31.02,360.92,0,0,19.88,35.47,69.51,13.56Z"/>
          <path class="cls-2" d="M1894.72,2090.56c-28.72,0-41.23-21.55-41.39-21.84-.42-.75-.39-1.66,.08-2.38,58.35-89.82,30.95-356.73,30.66-359.42-.12-1.17,.65-2.25,1.8-2.49,1.72-.37,42.44-8.79,71.68,15.51,19.7,16.38,29.16,43.56,28.1,80.79-1.95,68.82-20.22,146.93-54.28,232.16-1.34,3.35-2.3,5.77-2.74,7.02-2.38,6.79-1.69,19.64-1.18,29.02,.55,10.2,.72,13.28-1.68,14.34-11.94,5.27-22.26,7.29-31.05,7.29Zm-36.66-22.95c2.83,4.25,13.96,18.42,36.35,18.42,8.06,0,17.57-1.83,28.69-6.63,.2-1.72-.04-6.21-.26-10.23-.53-9.76-1.25-23.14,1.43-30.79,.47-1.34,1.45-3.8,2.81-7.2,33.86-84.73,52.02-162.31,53.95-230.58,1.01-35.72-7.87-61.66-26.41-77.09-23.93-19.91-57.27-16.26-65.76-14.93,2.74,27.26,25.29,270.09-30.81,359.04Zm65.85,11.44s0,0,0,0h0Z"/>
        </g>
        <g>
          <g>
            <path class="cls-2" d="M1770.27,2114.41c1.7-4.35,4.61-9.14,9.5-13.63,14.16-12.98,83.89-56.99,83.89-56.99,0,0,34.86,5.06,18.07,28.54,0,0,36.16-7.73,44.94-5.44,6.44,1.68,5.87,34.56,5.11,51.92-.26,5.89-5.11,10.52-11.01,10.52h-140.18c-7.71,0-13.12-7.74-10.31-14.93Z"/>
            <path class="cls-2" d="M1920.76,2131.64h-140.18c-4.42,0-8.56-2.18-11.05-5.84-2.46-3.61-2.99-8.18-1.4-12.23,2.12-5.42,5.52-10.3,10.09-14.49,14.15-12.97,81.37-55.44,84.22-57.24,.47-.29,1.02-.41,1.56-.33,.77,.11,18.87,2.86,23.53,13.78,1.75,4.12,1.38,8.72-1.09,13.72,10.64-2.11,33.54-6.25,40.82-4.36,2.49,.65,9.1,2.37,6.83,54.25-.31,7.14-6.16,12.73-13.32,12.73Zm-56.62-85.43c-7.56,4.79-69.75,44.29-82.82,56.27-4.05,3.71-7.05,8.01-8.91,12.77h0c-1.04,2.67-.71,5.56,.92,7.95,1.64,2.4,4.35,3.83,7.25,3.83h140.18c4.68,0,8.51-3.65,8.71-8.32,1.63-37.18-1.52-48.7-3.41-49.6-6.72-1.75-33.94,3.36-43.85,5.47-.93,.2-1.89-.19-2.41-.99-.52-.8-.5-1.83,.05-2.6,3.89-5.43,5.04-10.11,3.43-13.89-3.16-7.44-15.8-10.27-19.14-10.89Zm-93.87,68.2h0Z"/>
          </g>
          <path class="cls-2" d="M1931.78,2118.64c0,.06,0,.12,0,.18-.26,5.89-5.11,10.52-11.01,10.52h-140.18c-6.2,0-10.9-5.01-11.05-10.7h162.25Z"/>
          <path class="cls-2" d="M1808.44,2104.67c-.88,0-1.73-.51-2.11-1.37-.52-1.16,0-2.52,1.17-3.04l67.45-30.03c1.17-.52,2.53,0,3.04,1.17,.52,1.16,0,2.52-1.17,3.04l-67.45,30.03c-.3,.14-.62,.2-.93,.2Z"/>
        </g>
        <g>
          <path class="cls-2" d="M1978.89,1300.89s64.29,248.69,93.8,541.87c0,0-76.39,29.11-217.35-36.71-140.96-65.82-159.62-5.53-159.62-5.53l128.47-509.77,154.7,10.14Z"/>
          <path class="cls-2" d="M2023.3,1851.65c-36.86,0-93.59-8.34-168.93-43.52-77.94-36.39-117.61-33.71-137.17-25.05-15.66,6.94-19.25,18-19.28,18.11-.37,1.19-1.6,1.88-2.82,1.54-1.2-.34-1.92-1.57-1.61-2.78l128.47-509.77c.27-1.08,1.28-1.81,2.39-1.74l154.7,10.14c.99,.06,1.83,.76,2.08,1.72,.64,2.49,64.67,252.22,93.87,542.22,.1,1.04-.5,2.01-1.47,2.38-1.46,.56-18.47,6.74-50.21,6.74Zm-276.22-78.61c24.03,0,58.93,7.43,109.23,30.92,127.08,59.34,202.03,40.8,213.9,37.19-28.01-276.65-87.6-516.16-93.14-538.07l-151.11-9.91-124.8,495.21c3.28-3.27,7.85-6.71,14.18-9.51,7.51-3.32,17.8-5.83,31.75-5.83Z"/>
        </g>
      </g>
      <g>
        <g>
          <path class="cls-2" d="M1909,1084.04c-19.53,2.15-53.38,9.13-80.36,31.76-40.4,33.89-101.46,103.46-115.54,159.78-7.61,30.42,56.19,54.77,98.29,15.09,1.72,5.69,5.59,10.71,11.23,13.69,26.97,14.25,65.63,27.26,164.58,8.53,16-3.03,28.26-16.01,30.37-32.16l23.22-169.92s-55.36-36.84-131.8-26.77Z"/>
          <g>
            <path class="cls-2" d="M1790.84,1259.89c-.34-19.58-13.94-36.25-32.94-40.97-17.06-4.24-38.54-13.11-58.49-31.51-31.1-28.67-53.57-50.71-63.14-60.21-3-2.98-4.79-7-4.85-11.23-.1-6-1.27-15.02-6.84-20.53-8.92-8.81-2.57-36.14-19.17-35.87l-.84,21.28c-.2,5.16-6.02,8.06-10.25,5.1-.48-.34-.98-.71-1.48-1.12-7.01-5.73-16.21-18.69-21.88-23.09-11.12-8.64-19.78-1.97-19.78-1.97,0,0,26.16,54.84,47.37,65.27,11.24,5.53,52.11,139.01,145.88,170.17,23.12,7.68,46.85-10.06,46.43-34.42l-.02-.89Z"/>
            <path class="cls-2" d="M1755.58,1299.33c-3.96,0-7.96-.64-11.88-1.94-71.44-23.74-113.05-107.1-133.05-147.16-5.43-10.87-11.03-22.1-13.12-23.13-21.67-10.66-47.34-64.08-48.43-66.34-.47-.98-.19-2.15,.67-2.82,3.49-2.68,12.69-5.72,22.6,1.98,2.94,2.28,6.59,6.52,10.46,11.01,3.94,4.57,8.02,9.31,11.46,12.12,.46,.38,.91,.72,1.35,1.02,1.28,.89,2.88,1.01,4.28,.32,1.41-.7,2.28-2.05,2.35-3.62l.83-21.28c.05-1.22,1.04-2.19,2.27-2.21,.1,0,.2,0,.29,0,11.67,0,13.63,11.3,15.36,21.28,1.04,6.03,2.12,12.26,5.17,15.26,6.03,5.95,7.42,15.32,7.53,22.13,.06,3.6,1.54,7.02,4.17,9.63,10.45,10.38,32.55,32,63.08,60.15,16.43,15.15,35.77,25.56,57.48,30.97,20.07,4.99,34.33,22.74,34.69,43.17l.02,.89c.21,12.46-5.43,23.85-15.49,31.24-6.6,4.85-14.27,7.34-22.09,7.34Zm-201.37-238.64c4.83,9.73,27.31,53.4,45.36,62.28,3.34,1.64,7.08,8.92,15.21,25.21,19.72,39.5,60.75,121.71,130.38,144.84,10.21,3.39,21.07,1.66,29.79-4.74,8.84-6.49,13.8-16.5,13.61-27.45l-.02-.89c-.32-18.34-13.14-34.29-31.19-38.78-22.48-5.59-42.49-16.37-59.5-32.05-30.59-28.2-52.73-49.87-63.2-60.27-3.49-3.47-5.46-8.02-5.53-12.83-.08-4.87-.98-13.81-6.16-18.93-4.1-4.04-5.3-11.01-6.47-17.75-1.7-9.79-3.23-16.13-8.87-17.27l-.74,18.88c-.13,3.28-1.96,6.11-4.9,7.57-2.93,1.46-6.29,1.21-8.98-.67-.53-.37-1.07-.78-1.62-1.23-3.75-3.06-7.96-7.95-12.04-12.68-3.71-4.31-7.22-8.38-9.8-10.38-6.96-5.4-12.67-4.06-15.35-2.86Z"/>
          </g>
          <path class="cls-2" d="M1828.88,1221.13c-.54,0-1.08-.19-1.52-.57-.58-.5-14.12-12.58-12.22-32.81,3.52-37.57,35.82-44.95,36.15-45.02,1.25-.27,2.47,.52,2.74,1.76,.27,1.24-.52,2.47-1.76,2.74-1.19,.26-29.33,6.82-32.53,40.94-1.68,17.9,10.54,28.8,10.67,28.91,.96,.84,1.06,2.29,.22,3.25-.45,.52-1.09,.79-1.73,.79Z"/>
          <path class="cls-2" d="M1748.64,1206.46c-.45,0-.91-.13-1.31-.41-1.04-.73-1.31-2.16-.58-3.21,26.15-37.68,58.68-70.58,80.41-88.81,27.83-23.35,63.06-30.25,81.58-32.29,1.28-.15,2.4,.77,2.54,2.04,.14,1.26-.77,2.4-2.04,2.54-18.01,1.98-52.23,8.67-79.13,31.24-21.5,18.04-53.7,50.6-79.59,87.91-.45,.65-1.17,.99-1.89,.99Z"/>
          <path class="cls-2" d="M1902.46,1324.49c-39.32,0-62.38-8.3-80.91-18.1-4.95-2.62-8.81-6.72-11.11-11.76-16.35,14.15-37.5,20.9-58.49,18.57-16.56-1.84-30.56-9.02-37.45-19.21-.71-1.05-.43-2.49,.62-3.2,1.05-.71,2.49-.43,3.2,.62,6.05,8.95,19.13,15.55,34.14,17.21,20.78,2.3,41.68-4.86,57.36-19.64,.58-.55,1.41-.75,2.17-.55,.77,.21,1.38,.8,1.61,1.56,1.61,5.35,5.2,9.73,10.1,12.32,28.34,14.98,67.71,26.35,163.07,8.3,15.06-2.85,26.52-14.99,28.52-30.19l23.02-168.46c-8.47-5.17-60.47-34.68-129.01-25.64-1.29,.17-2.42-.72-2.59-1.98-.17-1.26,.72-2.42,1.98-2.59,76.43-10.07,132.81,26.76,133.37,27.13,.74,.49,1.13,1.36,1.01,2.23l-23.22,169.92c-2.25,17.17-15.2,30.88-32.23,34.11-35.1,6.65-62.78,9.34-85.17,9.34Z"/>
        </g>
        <g>
          <path class="cls-2" d="M1937.36,1334.17c14.25-6.02,28.02-15.89,40.33-26.6,66.4-57.78-16.55-151.27-16.55-151.27l25.88-67.6c157.47,37.6,161.84,204.12,63.77,277.85-34.19,25.7-71.66,38.51-105.78,41.58,18.83-36.71,5.42-61.76-7.65-73.95Z"/>
          <g>
            <path class="cls-2" d="M1738.79,1327.74l41.58,14.48-7.65-16.56c-1.75-3.8,1.95-7.82,5.88-6.38,2.22,.81,4.81,2.18,7.73,4.41,8.19,6.26,22.71,29.13,23.7,30.21,18.23,1.87,77.05,5.49,128.56-17.99,13.4,11.82,30.25,31.42,12.47,68.65-80.75,9.59-152.22-23.64-152.22-23.64-21.93-.91-40.4-13.5-52.39-24.37-6.57-5.96-11.53-13.28-14.68-21.43-1.73-4.48,2.5-8.95,7.03-7.37Z"/>
            <path class="cls-2" d="M1921.38,1408.58c-64.53,0-117.8-23.01-123.09-25.38-22.6-1.1-41.49-14.15-53.4-24.95-6.81-6.17-11.95-13.68-15.28-22.31-1.14-2.94-.49-6.17,1.69-8.43,2.16-2.23,5.31-2.98,8.25-1.95l36.45,12.69-5.37-11.63c-1.21-2.62-.75-5.56,1.2-7.68,1.96-2.12,4.85-2.82,7.56-1.83,2.71,.99,5.51,2.59,8.33,4.74,6.81,5.21,17.12,20.38,22.07,27.67,.56,.83,1.1,1.63,1.48,2.17,18.17,1.77,76.07,5.03,126.35-17.9,.83-.38,1.8-.23,2.48,.37,15.44,13.61,30.87,34.02,13.03,71.37-.34,.71-1.02,1.2-1.81,1.29-10.16,1.21-20.19,1.73-29.95,1.73Zm-184.45-78.85c-.86,0-1.67,.34-2.3,1-.93,.96-1.2,2.3-.71,3.56,3.07,7.95,7.81,14.87,14.08,20.55,11.42,10.36,29.52,22.89,50.94,23.78,.3,.01,.6,.09,.87,.21,.71,.33,71.11,32.49,149.71,23.58,15.25-32.95,2.32-51.4-11.35-63.79-51.99,23.16-111.31,19.32-128.37,17.57-.56-.06-1.08-.32-1.46-.73-.29-.32-.68-.87-2.35-3.34-4.44-6.54-14.84-21.85-21.06-26.6-2.45-1.87-4.85-3.25-7.12-4.08-1.39-.51-2.33,.35-2.58,.62-.25,.28-1.03,1.28-.41,2.62l7.65,16.56c.39,.84,.24,1.83-.38,2.51-.62,.69-1.6,.93-2.47,.63l-41.58-14.48c-.37-.13-.74-.19-1.11-.19Z"/>
          </g>
          <path class="cls-2" d="M1960.29,1408.43c-1.1,0-2.07-.79-2.27-1.91-.22-1.25,.63-2.45,1.88-2.66,31.74-5.46,62.7-18.99,89.5-39.15,46.27-34.79,71.12-93.1,63.3-148.55-7.5-53.14-43.49-95.71-98.77-116.79-1.19-.45-1.78-1.78-1.33-2.97,.45-1.19,1.79-1.78,2.97-1.33,56.89,21.7,93.95,65.61,101.69,120.46,8.05,57.09-17.5,117.1-65.1,152.88-27.39,20.59-59.03,34.42-91.49,40.01-.13,.02-.26,.03-.39,.03Z"/>
        </g>
        <path class="cls-2" d="M1937.36,1336.48c-.9,0-1.75-.53-2.12-1.41-.5-1.17,.05-2.52,1.23-3.02,85.02-35.88,72.23-148.93,72.1-150.07-.16-1.26,.74-2.41,2.01-2.57,1.26-.15,2.41,.75,2.57,2.01,.14,1.17,13.31,117.65-74.88,154.87-.29,.12-.6,.18-.9,.18Z"/>
      </g>
      <g>
        <path class="cls-2" d="M1965.89,973.1c-1.91,.79-4.06-.26-4.57-2.26-2.43-9.5-11.52-24.87-23.23-29.34-15-5.72-33.48-3.45-39.03,7.78-4.84,9.79-2.42,16.45-15.6,28.17-1.26,1.12-.62,3.3,.58,4.49l6.28,6.95c1.34,1.34,2.09,5.31,2.02,7.21-.24,5.86-1.24,18.25,.56,20.11,3.49,3.64,23.27,5.2,23.27,5.2l8.2,55.78c.31,2.12-1.2,4.07-3.33,4.3l-23.57,6.42s16.07,20.23,63.45,23.67c30.29,2.2,57.9-12.54,57.9-12.54,0,0-59.9-19.53-58.17-88.94,.04-1.53,.9-2.92,2.24-3.65,5.14-2.81,19.11-11.26,18.37-21.91-.78-11.31-8.83-14.15-15.37-11.44Z"/>
        <path class="cls-2" d="M1967.27,1114.11c-2.15,0-4.32-.07-6.51-.23-47.84-3.48-64.41-23.68-65.09-24.54-.48-.61-.63-1.41-.38-2.15,.24-.74,.84-1.3,1.58-1.51l23.57-6.42c.12-.03,.24-.05,.36-.07,.4-.04,.76-.24,1-.56,.25-.32,.35-.71,.29-1.11l-7.94-53.97c-6.2-.57-19.5-2.19-22.92-5.74-1.9-1.98-1.95-7.13-1.35-18.7,.06-1.15,.11-2.2,.15-3.1,.08-1.85-.74-4.89-1.34-5.48l-6.37-7.04c-1.16-1.15-1.91-2.93-1.86-4.54,.04-1.27,.55-2.41,1.46-3.22,8.6-7.64,10.09-12.74,11.82-18.64,.81-2.76,1.65-5.61,3.24-8.83,6.4-12.94,26.74-14.7,41.92-8.91,12.78,4.87,22.1,21.01,24.64,30.92,.1,.41,.38,.6,.54,.68,.16,.08,.5,.19,.91,.02,4.16-1.72,8.53-1.48,12,.66,2.7,1.67,6.04,5.24,6.56,12.74,.78,11.23-11.92,19.91-19.56,24.09-.63,.34-1.03,.99-1.04,1.68-1.66,66.83,54.2,85.92,56.58,86.7,.88,.29,1.5,1.07,1.58,1.99,.08,.92-.4,1.8-1.21,2.23-1.07,.57-24.77,13.03-52.64,13.04Zm-65.35-25.03c6.18,5.42,23.77,17.62,59.16,20.2,22.14,1.61,43.05-6.15,52.03-10.09-14.62-6.68-56.22-30.85-54.77-89.15,.06-2.33,1.37-4.49,3.44-5.62,5.37-2.94,17.79-10.74,17.17-19.73-.3-4.39-1.82-7.55-4.39-9.14-2.19-1.35-5.03-1.47-7.81-.32-1.54,.64-3.26,.58-4.74-.16-1.46-.73-2.54-2.07-2.94-3.66-2.23-8.68-10.69-23.51-21.81-27.75-13.35-5.09-31.06-3.64-36.15,6.65-1.42,2.86-2.16,5.4-2.95,8.08-1.77,6.03-3.6,12.27-13.18,20.79,.05,.06,.23,.7,.67,1.13l6.37,7.04c1.97,1.95,2.69,6.82,2.61,8.85-.04,.91-.09,1.99-.16,3.15-.21,4.11-.72,13.72,.2,15.43,1.66,1.7,12.57,3.62,21.66,4.34,1.07,.08,1.94,.9,2.1,1.96l8.2,55.78c.24,1.65-.19,3.29-1.21,4.6-.98,1.26-2.38,2.07-3.95,2.29l-19.57,5.33Z"/>
      </g>
    </g>
  </g>
</svg>